<?xml version="1.0" standalone="no"?>
<!DOCTYPE svg PUBLIC "-//W3C//DTD SVG 20010904//EN"
 "http://www.w3.org/TR/2001/REC-SVG-20010904/DTD/svg10.dtd">
<svg version="1.0" xmlns="http://www.w3.org/2000/svg"
 width="432.000000pt" height="432.000000pt" viewBox="0 0 432.000000 432.000000"
 preserveAspectRatio="xMidYMid meet">
<metadata>
Created by potrace 1.11, written by Peter Selinger 2001-2013
</metadata>
<g transform="translate(0.000000,432.000000) scale(0.100000,-0.100000)"
fill="#000000" stroke="none">
<path d="M0 2160 l0 -1950 2160 0 2160 0 0 1950 0 1950 -2160 0 -2160 0 0
-1950z m628 1660 c10 -11 29 -53 42 -93 57 -179 83 -252 102 -286 23 -41 77
-101 92 -101 6 -1 40 -42 76 -91 36 -50 82 -107 104 -127 l38 -37 -33 -5 c-92
-14 -99 -215 -14 -391 13 -29 23 -55 20 -57 -10 -10 -43 30 -72 86 -44 84 -56
140 -50 229 6 94 12 118 32 149 24 36 18 40 -14 10 -30 -29 -35 -28 -74 3
-200 162 -231 211 -276 437 -45 231 -35 340 27 274z m337 -6 c14 -15 25 -33
25 -41 0 -7 4 -21 9 -31 5 -9 23 -46 41 -82 40 -79 74 -125 154 -207 58 -61
86 -77 86 -50 0 6 16 33 35 59 36 49 147 121 172 111 23 -9 14 -40 -19 -69
-18 -15 -43 -40 -54 -56 -25 -34 -39 -109 -25 -135 13 -24 179 -109 190 -97 5
5 21 32 36 59 38 69 73 115 90 115 19 0 45 -51 45 -88 0 -15 5 -33 12 -40 9
-9 20 4 49 56 20 37 55 86 77 110 63 68 102 52 102 -42 0 -43 2 -46 26 -46 33
0 90 56 99 96 9 41 27 76 43 81 15 6 52 -25 52 -44 0 -7 4 -21 9 -31 5 -9 16
-34 25 -55 22 -52 51 -47 86 13 34 58 68 65 99 22 12 -17 21 -37 21 -45 0 -9
4 -18 8 -21 4 -3 14 -28 22 -55 7 -28 17 -51 21 -51 13 0 26 31 34 78 4 25 14
46 25 52 28 15 77 -32 112 -107 l29 -64 90 48 c67 35 91 53 96 71 7 27 -12 88
-33 110 -8 7 -14 19 -14 25 0 7 -16 23 -35 37 -52 38 -57 70 -11 70 47 0 174
-105 191 -159 3 -12 10 -21 13 -21 4 0 29 19 55 41 84 74 168 198 217 322 50
127 132 113 164 -28 13 -58 14 -230 2 -242 -3 -4 -6 8 -6 26 0 40 -16 32 -25
-12 -16 -73 -69 -152 -170 -252 -56 -55 -120 -111 -143 -125 -39 -24 -41 -28
-42 -72 0 -60 18 -101 39 -92 143 61 151 58 150 -60 -1 -145 -31 -193 -95
-152 -28 19 -30 33 -8 57 9 10 13 23 9 28 -8 14 -55 14 -55 1 0 -24 -75 -90
-133 -116 -56 -25 -73 -27 -184 -28 -68 -1 -123 -3 -123 -6 0 -3 20 -18 45
-34 139 -87 153 -245 32 -352 -93 -82 -206 -84 -297 -6 -77 65 -103 168 -66
257 9 21 16 40 16 43 0 8 -39 -40 -61 -75 -38 -62 -63 -33 -75 87 -6 65 -9 72
-33 82 -27 10 -166 6 -178 -6 -4 -4 -10 -43 -14 -87 -7 -73 -19 -109 -39 -109
-5 0 -27 26 -49 57 -23 32 -41 51 -41 42 0 -8 5 -20 11 -26 20 -20 23 -129 5
-177 -33 -86 -141 -154 -229 -144 -84 10 -173 73 -203 144 -19 46 -17 121 5
169 16 37 32 53 114 118 l28 22 -118 1 c-158 1 -208 17 -286 96 -32 32 -65 58
-72 58 -23 0 -28 -20 -11 -45 15 -23 15 -26 -6 -45 -12 -11 -34 -20 -48 -20
-22 0 -29 6 -38 38 -19 66 -24 146 -12 191 11 41 12 42 43 35 17 -3 51 -15 76
-26 46 -20 60 -14 61 23 0 9 3 37 6 63 5 33 3 46 -5 46 -21 0 -183 138 -238
203 -53 62 -87 121 -120 209 -10 27 -21 48 -25 48 -12 0 -10 84 3 157 19 111
81 155 134 97z m2709 20 c13 -5 16 -22 16 -86 0 -45 -4 -97 -9 -117 -5 -20
-15 -67 -21 -106 -25 -147 -89 -273 -168 -332 -20 -15 -57 -45 -81 -65 -50
-43 -70 -47 -96 -18 -27 29 -28 19 -5 -34 27 -64 28 -229 2 -296 -37 -94 -83
-163 -98 -148 -3 3 4 25 15 49 36 80 53 143 58 216 9 122 -15 183 -72 183 -35
0 -31 16 10 42 19 13 35 28 35 35 0 6 6 18 13 25 7 7 34 42 60 77 25 35 59 72
75 82 49 29 108 129 141 239 38 124 75 227 89 243 17 20 15 19 36 11z m-2837
-396 c-3 -8 -6 -5 -6 6 -1 11 2 17 5 13 3 -3 4 -12 1 -19z m-225 -215 c8 -10
39 -66 68 -125 29 -59 67 -123 83 -143 35 -43 98 -85 126 -85 25 0 41 -28 41
-72 0 -18 7 -51 15 -73 8 -22 14 -50 15 -62 0 -19 -3 -21 -22 -14 -13 5 -40
14 -61 20 -174 56 -283 212 -316 454 -14 100 10 147 51 100z m3082 11 c28 -11
17 -173 -15 -236 -5 -10 -9 -23 -9 -29 0 -6 -17 -45 -37 -86 -27 -54 -53 -90
-96 -128 -55 -50 -85 -65 -193 -99 l-41 -13 7 36 c4 20 12 56 18 81 6 25 14
61 17 81 4 30 9 36 24 32 55 -14 148 85 226 240 47 93 68 126 82 127 1 0 8 -3
17 -6z m-337 -286 c-3 -7 -5 -2 -5 12 0 14 2 19 5 13 2 -7 2 -19 0 -25z m-54
-417 c102 -115 178 -247 164 -285 -10 -24 -26 -19 -38 11 -18 48 -29 56 -51
36 -17 -16 -18 -28 -13 -147 7 -161 -7 -231 -46 -231 -19 0 -25 6 -27 28 -2
15 -7 27 -11 27 -13 0 -37 -24 -61 -60 -13 -19 -37 -49 -53 -67 l-30 -32 37
-73 c66 -131 60 -240 -22 -418 -59 -129 -64 -146 -64 -199 0 -93 61 -139 198
-149 209 -14 344 121 344 346 0 60 -5 84 -27 129 -24 48 -35 60 -78 79 -27 13
-60 24 -73 24 -69 0 -132 -64 -132 -134 0 -46 -25 -59 -52 -27 -46 58 1 156
99 205 49 24 134 21 191 -8 141 -72 197 -243 138 -420 -70 -206 -232 -321
-456 -321 -127 0 -197 34 -256 127 -46 72 -58 146 -40 238 7 32 4 37 -30 64
-36 29 -37 29 -83 14 -30 -9 -56 -12 -76 -6 -60 16 -63 9 -58 -106 5 -94 4
-109 -17 -151 -31 -65 -98 -113 -190 -136 -38 -10 -310 -41 -350 -40 -69 2
-282 23 -330 33 -114 24 -185 69 -221 141 -18 35 -21 54 -17 149 4 121 2 125
-68 112 -21 -4 -52 -1 -74 6 -36 12 -41 11 -72 -13 l-33 -26 0 -108 c-1 -123
-14 -157 -89 -227 -52 -48 -92 -65 -169 -72 -138 -13 -290 41 -384 136 -158
158 -177 431 -38 559 56 52 104 71 174 71 85 0 170 -58 191 -129 13 -46 -8
-105 -38 -109 -20 -3 -22 1 -22 42 0 50 -30 95 -81 121 -74 39 -174 -9 -216
-105 -10 -23 -16 -65 -16 -120 0 -101 24 -174 78 -238 100 -116 326 -138 428
-40 40 37 40 38 35 100 -4 45 -17 88 -47 152 -102 218 -108 340 -25 481 l24
42 -22 25 c-42 46 -78 93 -78 101 0 5 -7 16 -17 25 -15 15 -17 15 -27 -2 -29
-47 -34 -51 -53 -40 -25 15 -34 101 -26 250 5 115 4 123 -14 132 -17 9 -23 6
-41 -18 -12 -16 -22 -34 -22 -40 0 -5 -7 -10 -15 -10 -26 0 -17 54 20 126 30
57 136 193 170 216 20 14 30 -14 25 -75 -2 -34 -4 -111 -4 -172 1 -97 5 -121
32 -203 36 -105 97 -235 119 -254 12 -9 20 -8 41 6 59 38 137 69 217 85 68 14
88 22 105 44 l21 27 -33 0 c-59 1 -102 16 -139 51 -20 19 -60 54 -89 78 -44
38 -88 106 -90 139 0 15 61 22 100 12 21 -6 76 -38 121 -72 46 -33 104 -70
129 -81 56 -25 192 -35 254 -17 62 17 137 77 162 129 20 41 22 42 38 25 14
-13 16 -27 11 -61 -7 -47 4 -55 48 -32 30 16 37 28 37 66 0 41 9 63 26 63 19
0 34 -33 34 -74 0 -27 6 -40 25 -52 42 -27 60 -16 57 37 -2 31 1 49 12 58 12
10 18 5 34 -31 23 -50 50 -77 112 -110 39 -20 58 -23 155 -22 130 0 164 13
265 94 36 28 78 59 95 67 31 16 86 20 121 9 21 -6 21 -7 -3 -54 -15 -31 -44
-65 -80 -93 -30 -24 -72 -61 -92 -81 -31 -32 -44 -38 -98 -44 l-63 -7 20 -27
c16 -22 32 -29 92 -40 92 -16 142 -35 210 -78 21 -14 44 -22 51 -19 18 7 90
153 121 245 41 120 52 216 37 327 -11 78 -11 100 -1 126 12 29 14 30 26 14 8
-10 24 -30 37 -44z m-1326 -1808 c-3 -3 -11 -2 -17 2 -9 6 -9 10 1 16 14 8 27
-7 16 -18z m333 13 c0 -3 -4 -8 -10 -11 -5 -3 -10 -1 -10 4 0 6 5 11 10 11 6
0 10 -2 10 -4z"/>
<path d="M1200 2856 c0 -15 48 -51 57 -42 3 3 -2 17 -11 31 -18 27 -46 34 -46
11z"/>
<path d="M3020 2845 c-7 -14 -10 -28 -7 -32 9 -9 58 37 51 48 -10 17 -31 9
-44 -16z"/>
<path d="M1744 2588 c-13 -22 -62 -29 -73 -10 -23 42 -61 -42 -61 -135 1 -156
102 -239 164 -134 36 62 32 221 -7 275 -12 17 -15 17 -23 4z"/>
<path d="M2607 2581 c-5 -20 -48 -21 -72 -1 -14 12 -18 12 -26 -1 -29 -45 -38
-162 -18 -233 13 -47 50 -86 82 -86 26 0 67 40 85 83 18 42 15 170 -5 211 -19
40 -39 52 -46 27z"/>
<path d="M1644 1970 c-38 -15 -68 -69 -72 -129 -11 -146 70 -241 203 -241 170
0 141 290 -37 365 -41 17 -63 18 -94 5z"/>
<path d="M2514 1956 c-78 -36 -133 -129 -134 -223 0 -66 14 -97 55 -119 46
-25 134 -15 181 21 104 80 111 288 10 330 -46 20 -52 19 -112 -9z"/>
<path d="M1410 1796 c-54 -12 -120 -41 -120 -53 0 -3 15 -22 33 -42 17 -21 47
-58 65 -84 l32 -48 58 2 c31 1 84 -6 118 -15 110 -29 210 -45 250 -39 31 4 46
14 72 48 27 35 42 75 28 75 -2 0 -19 -15 -38 -33 -41 -38 -95 -57 -164 -57
-101 1 -186 74 -223 193 -21 70 -26 73 -111 53z"/>
<path d="M2767 1803 c-2 -4 -10 -26 -17 -48 -43 -136 -122 -205 -235 -205 -69
0 -119 20 -167 68 -42 40 -49 29 -17 -27 26 -47 76 -81 120 -81 19 0 94 16
167 35 82 21 145 32 162 28 50 -9 76 4 109 55 17 27 41 58 52 68 42 38 43 52
1 73 -21 11 -56 22 -77 26 -22 3 -52 9 -67 11 -14 3 -28 2 -31 -3z"/>
<path d="M1239 1682 c-25 -30 -42 -98 -37 -149 5 -50 57 -195 82 -229 18 -23
42 -12 66 29 12 22 13 30 2 47 -18 29 -15 36 24 59 47 28 42 51 -16 71 -57 20
-68 54 -21 63 42 9 39 25 -11 74 -52 49 -71 56 -89 35z"/>
<path d="M2936 1648 c-25 -24 -46 -49 -46 -56 0 -6 16 -14 35 -18 24 -4 35
-12 35 -23 0 -17 -13 -26 -72 -50 -38 -15 -35 -38 7 -62 35 -21 44 -42 25 -54
-25 -16 13 -95 45 -95 27 0 105 204 105 273 0 12 -8 45 -18 72 -25 69 -53 72
-116 13z"/>
<path d="M2098 1483 c23 -2 59 -2 80 0 20 2 1 4 -43 4 -44 0 -61 -2 -37 -4z"/>
<path d="M2060 1419 c-57 -16 -174 -62 -187 -73 -10 -9 -10 -26 -3 -74 17
-104 -3 -111 -51 -17 -22 42 -40 65 -51 65 -22 0 -22 -9 -3 -80 8 -30 15 -62
15 -72 0 -19 -53 -40 -76 -31 -17 6 -16 31 2 136 6 34 5 37 -18 37 -13 0 -32
-6 -41 -12 -25 -20 -8 -130 34 -215 39 -77 82 -113 170 -137 99 -28 94 -35 94
113 0 125 7 161 25 131 10 -16 32 -165 34 -230 1 -43 2 -45 33 -48 l32 -3 3
78 c2 61 6 78 18 78 12 0 16 -17 18 -77 3 -75 4 -78 27 -78 24 0 25 2 25 74 0
66 10 99 26 83 3 -2 6 -39 7 -81 2 -71 4 -76 24 -76 38 0 53 11 48 34 -6 22
20 230 30 247 19 29 25 -4 25 -127 l0 -137 47 7 c52 7 137 43 169 72 30 27 72
115 85 176 5 29 12 63 14 75 6 27 -19 53 -51 53 l-24 0 6 -85 c8 -94 1 -105
-49 -86 -32 13 -34 37 -11 118 13 46 14 57 3 64 -16 10 -36 -5 -45 -34 -11
-34 -53 -97 -65 -97 -8 0 -9 24 -4 79 l7 78 -69 28 c-132 53 -198 64 -273 44z"/>
<path d="M1445 1350 c-7 -12 19 -12 55 0 22 7 21 8 -12 9 -20 1 -40 -3 -43 -9z"/>
<path d="M2790 1349 c0 -5 9 -9 20 -9 11 0 20 2 20 4 0 2 -9 6 -20 9 -11 3
-20 1 -20 -4z"/>
</g>
</svg>
